<svg id="shoes" enable-background="new 0 0 300 300" height="512" viewBox="0 0 300 300" width="512" xmlns="http://www.w3.org/2000/svg"><g><path d="m241.466 107.027c.781.781 1.805 1.172 2.828 1.172s2.047-.391 2.828-1.172c1.562-1.562 1.562-4.094 0-5.656l-5.656-5.656c-1.562-1.562-4.094-1.562-5.656 0s-1.562 4.094 0 5.656z"/><path d="m221.669 87.23c.781.781 1.805 1.172 2.828 1.172s2.047-.391 2.828-1.172c1.562-1.562 1.562-4.094 0-5.656l-5.656-5.656c-1.562-1.562-4.094-1.562-5.656 0s-1.562 4.094 0 5.656z"/><path d="m238.638 88.402c1.023 0 2.047-.391 2.828-1.172l5.656-5.656c1.562-1.562 1.562-4.094 0-5.656s-4.094-1.562-5.656 0l-5.656 5.656c-1.562 1.562-1.562 4.094 0 5.656.781.782 1.804 1.172 2.828 1.172z"/><path d="m218.841 108.199c1.023 0 2.047-.391 2.828-1.172l5.656-5.656c1.562-1.562 1.562-4.094 0-5.656s-4.094-1.562-5.656 0l-5.656 5.656c-1.562 1.562-1.562 4.094 0 5.656.781.782 1.804 1.172 2.828 1.172z"/><path d="m107.567 81.572c2.264 0 4.099-1.835 4.099-4.099s-1.835-4.1-4.099-4.1-4.099 1.836-4.099 4.1 1.836 4.099 4.099 4.099z"/><path d="m179.567 165.572c2.264 0 4.099-1.835 4.099-4.099s-1.835-4.1-4.099-4.1-4.099 1.836-4.099 4.1 1.836 4.099 4.099 4.099z"/><path d="m163.567 65.473c6.617 0 12-5.383 12-12s-5.383-12-12-12-12 5.383-12 12 5.383 12 12 12zm0-16c2.207 0 4 1.793 4 4s-1.793 4-4 4-4-1.793-4-4 1.793-4 4-4z"/><path d="m107.567 121.473c0 6.617 5.383 12 12 12s12-5.383 12-12-5.383-12-12-12-12 5.382-12 12zm12-4c2.207 0 4 1.793 4 4s-1.793 4-4 4-4-1.793-4-4 1.793-4 4-4z"/><path d="m251.36 237.152c-2.488-7.473-11.746-21.609-28.957-21.609-16.125 0-21.555-8.078-21.75-8.375-.641-1.047-1.727-1.742-2.941-1.887-1.242-.148-2.438.277-3.301 1.145-1.32 1.32-2.453 2.711-3.551 4.059-2.891 3.551-4.828 5.746-8.105 6.156-7.555.949-9.801.027-15.805-2.414-6.52-2.648-12.562-7.484-17.477-13.988l-74.895-99.176c-.77-1.02-2-1.566-3.246-1.59-1.27.016-2.461.641-3.199 1.676-29.501 41.301-18.037 62.385-14.744 66.974l7.213 81.702c.184 2.066 1.91 3.648 3.984 3.648h7.492c2.062 0 3.785-1.566 3.98-3.621l7.233-75.737c3.241.684 6.745 1.479 10.58 2.437 10.52 2.633 17.535 24.875 23.176 42.746 2.316 7.348 4.504 14.285 6.84 19.75 6.043 14.125 26.973 17.488 42.195 18.789 5.594.477 10.91.691 15.957.691 43.707 0 66.785-16.094 67.852-16.855 1.43-1.021 2.028-2.853 1.469-4.521zm-182.918 8.321-6.787-74.802c3.055.276 7.639.825 13.751 1.906zm98.321 4.394c-20.348-1.742-32.301-6.441-35.516-13.969-2.184-5.102-4.316-11.855-6.57-19.008-6.562-20.805-14-44.383-28.867-48.098-19.742-4.938-31.891-6.07-36.551-6.332-2.457-4.402-8.543-20.793 12.277-52.156l71.555 94.754c5.785 7.656 12.992 13.387 20.848 16.582 7.066 2.871 10.57 4.098 19.809 2.938 6.629-.828 10.184-5.191 13.32-9.043.078-.098.156-.191.234-.289 4.02 3.574 11.84 8.297 25.102 8.297 11.707 0 17.719 8.633 20.109 13.277-8.098 4.547-33.969 16.594-75.75 13.047z"/></g></svg>