<svg id="Capa_1" enable-background="new 0 0 512 512" height="512" viewBox="0 0 512 512" width="512" xmlns="http://www.w3.org/2000/svg"><g><path d="m241.231 305.372-8.785 8.785-34.603-34.603 186.917-186.917c2.932-2.932 2.932-7.685 0-10.617-2.933-2.932-7.685-2.932-10.618 0l-209.525 209.526-19.185-19.185c-7.083-7.082-18.608-7.081-25.69 0l-7.537 7.537c-7.083 7.083-7.083 18.607 0 25.69l17.301 17.301-117.161 117.161c-7.961 7.961-12.345 18.545-12.345 29.803s4.384 21.842 12.345 29.802c7.96 7.96 18.544 12.345 29.802 12.345s21.842-4.384 29.802-12.345l117.161-117.161 17.301 17.301c3.541 3.542 8.193 5.312 12.845 5.312s9.304-1.771 12.845-5.312l7.537-7.537c7.083-7.082 7.083-18.607 0-25.69l-19.185-19.185 31.394-31.394c2.932-2.932 2.932-7.685 0-10.617-2.931-2.932-7.684-2.932-10.616 0zm-97.34 101.108-38.371-38.371 11.993-11.993 38.371 38.371zm-22.61 22.609-38.371-38.371 11.993-11.993 38.371 38.371zm-22.609 22.61-38.371-38.371 11.993-11.993 38.371 38.371zm-48.988-27.754 38.371 38.371-11.993 11.993-38.371-38.371zm-26.722 65.093c-10.579-10.579-10.579-27.792 0-38.371l4.112-4.112 38.371 38.371-4.112 4.112c-10.579 10.579-27.793 10.579-38.371 0zm143.539-105.168-38.371-38.371 11.993-11.993 38.371 38.371zm62.521-2.228-7.537 7.537c-1.229 1.229-3.228 1.228-4.456 0l-94.208-94.208c-1.228-1.229-1.228-3.227 0-4.456l7.537-7.537c1.486-1.228 2.971-1.228 4.457 0l94.207 94.207c1.228 1.229 1.228 3.228 0 4.457zm-53.788-79.479 11.993-11.993 34.603 34.603-11.993 11.993z"/><path d="m497.817.268-35.94 14.376c-22.515 9.006-42.625 22.266-59.772 39.413l-3.191 3.191c-2.932 2.932-2.932 7.685 0 10.617 2.933 2.932 7.685 2.932 10.618 0l3.191-3.191c15.7-15.701 34.114-27.843 54.73-36.089l26.602-10.64-10.641 26.602c-8.245 20.615-20.387 39.028-36.088 54.73l-181.322 181.321c-2.932 2.932-2.932 7.685 0 10.617 3.539 2.932 7.079 2.932 10.618 0l181.322-181.322c17.147-17.148 30.407-37.258 39.412-59.771l14.376-35.939c1.478-10.755-3.16-15.393-13.915-13.915z"/></g></svg>